<?xml version="1.0" encoding="UTF-8"?>
<!-- Generated by Pixelmator Pro 3.2.2 -->
<svg width="5000" height="5000" viewBox="0 0 5000 5000" xmlns="http://www.w3.org/2000/svg" xmlns:xlink="http://www.w3.org/1999/xlink">
    <path id="Color-Fill" fill="#ffffff" stroke="none" d="M 0 0 L 5000 0 L 5000 5000 L 0 5000 Z"/>
    <g id="Poggiolo">
        <g id="Right">
            <g id="Stroke">
                <path id="Path" fill="none" stroke="#000000" stroke-width="20" stroke-linecap="round" d="M 4614.5625 3290 L 4307.8125 3290 L 4262.8125 3110 L 4731.5625 3110 Z"/>
                <path id="path1" fill="none" stroke="#000000" stroke-width="20" stroke-linecap="round" d="M 4740 3090 L 2510 3090 L 2510 2910 L 4740 2910 Z"/>
                <path id="path2" fill="none" stroke="#000000" stroke-width="20" stroke-linecap="round" d="M 4289.703125 3300.0625 L 4110 4063.828125 L 4110 3254.15625 L 4244.578125 3119.578125 Z"/>
            </g>
            <g id="Fill">
                <path id="path3" fill="#000000" fill-rule="evenodd" stroke="none" d="M 2725 2700 L 2675 2700 L 2550 2880 L 2550 2900 L 2590 2900 L 2725 2700 Z"/>
                <path id="path4" fill="#000000" fill-rule="evenodd" stroke="none" d="M 4325 2900 L 4275 2900 L 4550 2650 L 4550 2700 L 4325 2900 Z"/>
                <path id="path5" fill="#000000" fill-rule="evenodd" stroke="none" d="M 4325 1979 L 4275 1979 L 4550 1729 L 4550 1779 L 4325 1979 Z"/>
                <path id="path6" fill="#000000" fill-rule="evenodd" stroke="none" d="M 4325 1603 L 4275 1603 L 4550 1353 L 4550 1403 L 4325 1603 Z"/>
                <path id="path7" fill="#000000" fill-rule="evenodd" stroke="none" d="M 4325 1500 L 4275 1500 L 4550 1250 L 4550 1300 L 4325 1500 Z"/>
                <path id="Ellipse" fill="#000000" fill-rule="evenodd" stroke="none" d="M 4520 1050 C 4520 939.542969 4555.817383 850 4600 850 C 4644.182617 850 4680 939.542969 4680 1050 C 4680 1160.457031 4644.182617 1250 4600 1250 C 4555.817383 1250 4520 1160.457031 4520 1050 Z"/>
                <path id="path8" fill="#000000" fill-rule="evenodd" stroke="none" d="M 4650 2903 L 4650 1203 L 4550 1203 L 4550 2903 L 4650 2903 Z"/>
                <path id="path9" fill="#000000" fill-rule="evenodd" stroke="none" d="M 2500 2900 L 2500 1200 L 2550 1200 L 2550 2900 L 2500 2900 Z"/>
                <path id="path10" fill="#000000" fill-rule="evenodd" stroke="none" d="M 4550 1250 L 2550 1250 L 2550 1300 L 4550 1300 L 4550 1250 Z"/>
                <path id="path11" fill="#000000" fill-rule="evenodd" stroke="none" d="M 4300 3300 L 4100 4150 L 4400 4150 L 4620 3300 L 4300 3300 Z"/>
                <path id="path12" fill="#000000" fill-rule="evenodd" stroke="none" d="M 2500 3100 L 4250 3100 L 4100 3250 L 2500 3250 L 2500 3100 Z"/>
                <path id="path13" fill="#000000" fill-rule="evenodd" stroke="none" d="M 2550 1350 L 4550 1350 L 4550 1400 L 2550 1400 L 2550 1350 Z"/>
                <path id="path14" fill="#000000" fill-rule="evenodd" stroke="none" d="M 2550 1750 L 4550 1750 L 4550 1800 L 2550 1800 L 2550 1750 Z"/>
                <path id="path15" fill="#000000" fill-rule="evenodd" stroke="none" d="M 2675 2650 L 2675 2700 L 4550 2700 L 4550 2650 L 2675 2650 Z"/>
                <path id="path16" fill="#000000" fill-rule="evenodd" stroke="none" d="M 2675 2600 L 2675 1450 L 2625 1450 L 2625 2600 L 2675 2600 Z"/>
                <path id="path17" fill="#000000" fill-rule="evenodd" stroke="none" d="M 2725 1400 L 2675 1450 L 2625 1450 L 2675 1400"/>
                <path id="path18" fill="#000000" fill-rule="evenodd" stroke="none" d="M 2625 2600 L 2675 2650 L 2725 2650 L 2675 2600"/>
                <path id="path19" fill="#000000" fill-rule="evenodd" stroke="none" d="M 2775 1400 L 2775 2650 L 2825 2650 L 2825 1400"/>
                <path id="path20" fill="#000000" fill-rule="evenodd" stroke="none" d="M 2925 1400 L 2925 2650 L 2975 2650 L 2975 1400"/>
                <path id="path21" fill="#000000" fill-rule="evenodd" stroke="none" d="M 3075 1400 L 3075 2650 L 3125 2650 L 3125 1400"/>
                <path id="path22" fill="#000000" fill-rule="evenodd" stroke="none" d="M 3225 1400 L 3225 2650 L 3275 2650 L 3275 1400"/>
                <path id="path23" fill="#000000" fill-rule="evenodd" stroke="none" d="M 3375 1400 L 3375 2650 L 3425 2650 L 3425 1400"/>
                <path id="path24" fill="#000000" fill-rule="evenodd" stroke="none" d="M 3525 1400 L 3525 2650 L 3575 2650 L 3575 1400"/>
                <path id="path25" fill="#000000" fill-rule="evenodd" stroke="none" d="M 3675 1400 L 3675 2650 L 3725 2650 L 3725 1400"/>
                <path id="path26" fill="#000000" fill-rule="evenodd" stroke="none" d="M 3825 1400 L 3825 2650 L 3875 2650 L 3875 1400"/>
                <path id="path27" fill="#000000" fill-rule="evenodd" stroke="none" d="M 3975 1400 L 3975 2650 L 4025 2650 L 4025 1400"/>
                <path id="path28" fill="#000000" fill-rule="evenodd" stroke="none" d="M 4275 1400 L 4275 2900 L 4325 2900 L 4325 1400"/>
                <path id="path29" fill="#000000" fill-rule="evenodd" stroke="none" d="M 4425 1400 L 4425 2650 L 4475 2650 L 4475 1400"/>
                <path id="path30" fill="#000000" fill-rule="evenodd" stroke="none" d="M 4125 1400 L 4125 2650 L 4175 2650 L 4175 1400"/>
            </g>
        </g>
        <g id="Left">
            <g id="g1">
                <path id="path31" fill="none" stroke="#000000" stroke-width="20" stroke-linecap="round" d="M 692.1875 3290 L 385.4375 3290 L 268.4375 3110 L 737.1875 3110 Z"/>
                <path id="path32" fill="none" stroke="#000000" stroke-width="20" stroke-linecap="round" d="M 2490 3090 L 260 3090 L 260 2910 L 2490 2910 Z"/>
                <path id="path33" fill="none" stroke="#000000" stroke-width="20" stroke-linecap="round" d="M 890 3254.15625 L 890 4063.828125 L 710.296875 3300.0625 L 755.421875 3119.578125 Z"/>
            </g>
            <g id="g2">
                <path id="path34" fill="#000000" fill-rule="evenodd" stroke="none" d="M 2275 2700 L 2325 2700 L 2450 2880 L 2450 2900 L 2410 2900 L 2275 2700 Z"/>
                <path id="path35" fill="#000000" fill-rule="evenodd" stroke="none" d="M 675 2900 L 725 2900 L 450 2650 L 450 2700 L 675 2900 Z"/>
                <path id="path36" fill="#000000" fill-rule="evenodd" stroke="none" d="M 675 1979 L 725 1979 L 450 1729 L 450 1779 L 675 1979 Z"/>
                <path id="path37" fill="#000000" fill-rule="evenodd" stroke="none" d="M 675 1603 L 725 1603 L 450 1353 L 450 1403 L 675 1603 Z"/>
                <path id="path38" fill="#000000" fill-rule="evenodd" stroke="none" d="M 675 1500 L 725 1500 L 450 1250 L 450 1300 L 675 1500 Z"/>
                <path id="path39" fill="#000000" fill-rule="evenodd" stroke="none" d="M 480 1050 C 480 939.542969 444.18277 850 400 850 C 355.81723 850 320 939.542969 320 1050 C 320 1160.457031 355.81723 1250 400 1250 C 444.18277 1250 480 1160.457031 480 1050 Z"/>
                <path id="path40" fill="#000000" fill-rule="evenodd" stroke="none" d="M 350 2903 L 350 1203 L 450 1203 L 450 2903 L 350 2903 Z"/>
                <path id="path41" fill="#000000" fill-rule="evenodd" stroke="none" d="M 2500 2900 L 2500 1200 L 2450 1200 L 2450 2900 L 2500 2900 Z"/>
                <path id="path42" fill="#000000" fill-rule="evenodd" stroke="none" d="M 450 1250 L 2450 1250 L 2450 1300 L 450 1300 L 450 1250 Z"/>
                <path id="path43" fill="#000000" fill-rule="evenodd" stroke="none" d="M 700 3300 L 900 4150 L 600 4150 L 380 3300 L 700 3300 Z"/>
                <path id="path44" fill="#000000" fill-rule="evenodd" stroke="none" d="M 2500 3100 L 750 3100 L 900 3250 L 2500 3250 L 2500 3100 Z"/>
                <path id="path45" fill="#000000" fill-rule="evenodd" stroke="none" d="M 2450 1350 L 450 1350 L 450 1400 L 2450 1400 L 2450 1350 Z"/>
                <path id="path46" fill="#000000" fill-rule="evenodd" stroke="none" d="M 2450 1750 L 450 1750 L 450 1800 L 2450 1800 L 2450 1750 Z"/>
                <path id="path47" fill="#000000" fill-rule="evenodd" stroke="none" d="M 2325 2650 L 2325 2700 L 450 2700 L 450 2650 L 2325 2650 Z"/>
                <path id="path48" fill="#000000" fill-rule="evenodd" stroke="none" d="M 2325 2600 L 2325 1450 L 2375 1450 L 2375 2600 L 2325 2600 Z"/>
                <path id="path49" fill="#000000" fill-rule="evenodd" stroke="none" d="M 2275 1400 L 2325 1450 L 2375 1450 L 2325 1400"/>
                <path id="path50" fill="#000000" fill-rule="evenodd" stroke="none" d="M 2375 2600 L 2325 2650 L 2275 2650 L 2325 2600"/>
                <path id="path51" fill="#000000" fill-rule="evenodd" stroke="none" d="M 2225 1400 L 2225 2650 L 2175 2650 L 2175 1400"/>
                <path id="path52" fill="#000000" fill-rule="evenodd" stroke="none" d="M 2075 1400 L 2075 2650 L 2025 2650 L 2025 1400"/>
                <path id="path53" fill="#000000" fill-rule="evenodd" stroke="none" d="M 1925 1400 L 1925 2650 L 1875 2650 L 1875 1400"/>
                <path id="path54" fill="#000000" fill-rule="evenodd" stroke="none" d="M 1775 1400 L 1775 2650 L 1725 2650 L 1725 1400"/>
                <path id="path55" fill="#000000" fill-rule="evenodd" stroke="none" d="M 1625 1400 L 1625 2650 L 1575 2650 L 1575 1400"/>
                <path id="path56" fill="#000000" fill-rule="evenodd" stroke="none" d="M 1475 1400 L 1475 2650 L 1425 2650 L 1425 1400"/>
                <path id="path57" fill="#000000" fill-rule="evenodd" stroke="none" d="M 1325 1400 L 1325 2650 L 1275 2650 L 1275 1400"/>
                <path id="path58" fill="#000000" fill-rule="evenodd" stroke="none" d="M 1175 1400 L 1175 2650 L 1125 2650 L 1125 1400"/>
                <path id="path59" fill="#000000" fill-rule="evenodd" stroke="none" d="M 1025 1400 L 1025 2650 L 975 2650 L 975 1400"/>
                <path id="path60" fill="#000000" fill-rule="evenodd" stroke="none" d="M 725 1400 L 725 2900 L 675 2900 L 675 1400"/>
                <path id="path61" fill="#000000" fill-rule="evenodd" stroke="none" d="M 575 1400 L 575 2650 L 525 2650 L 525 1400"/>
                <path id="path62" fill="#000000" fill-rule="evenodd" stroke="none" d="M 875 1400 L 875 2650 L 825 2650 L 825 1400"/>
            </g>
        </g>
    </g>
</svg>
